<svg class="icon" viewBox="0 0 1024 1024" xmlns="http://www.w3.org/2000/svg" width="200" height="200"><path d="M215.296 75.712a35.008 35.008 0 0 0-49.536 0l-.832.832a35.712 35.712 0 0 0 1.6 49.344L525.12 484.544a36.032 36.032 0 0 1 0 50.88L166.528 894.016a35.776 35.776 0 0 0-2.368 48.512c12.8 14.528 34.88 16.064 49.344 3.328.576-.512 1.28-1.024 1.792-1.6L624.64 534.912a35.072 35.072 0 0 0 0-49.408L215.296 75.712zm526.528-13.12a35.456 35.456 0 0 0-33.664 35.904v822.208c0 19.136 14.784 35.392 33.664 35.904a35.2 35.2 0 0 0 36.288-33.792V97.536c0-19.2-15.68-35.008-35.008-35.008h-1.28v.064z" fill="#040000"/></svg>