<svg class="icon" viewBox="0 0 1024 1024" xmlns="http://www.w3.org/2000/svg" width="200" height="200">
  <path
    d="M704 128h.853l1.664.085a42.923 42.923 0 0 1 27.648 12.374l-3.84-3.414.342.342 3.498 3.114 128 128 3.542 4.011a42.667 42.667 0 0 1-63.872 56.32l-55.168-55.125V832l-.299 4.992A42.667 42.667 0 0 1 661.333 832V273.707l-55.168 55.125a42.667 42.667 0 0 1-63.872-56.32l3.542-4.01 128-128 3.498-3.115.342-.299-3.84 3.413a43.008 43.008 0 0 1 23.85-12.032A42.539 42.539 0 0 1 704 128l-3.84.17 1.323-.085 1.706-.042zM554.667 725.333a42.667 42.667 0 0 1 4.992 85.035l-4.992.299H213.333a42.667 42.667 0 0 1-4.992-85.035l4.992-.299h341.334zm0-256a42.667 42.667 0 0 1 4.992 85.035l-4.992.299H213.333a42.667 42.667 0 0 1-4.992-85.035l4.992-.299h341.334zm-128-256a42.667 42.667 0 0 1 4.992 85.035l-4.992.299H213.333a42.667 42.667 0 0 1-4.992-85.035l4.992-.299h213.334z"/>
</svg>
