<svg class="icon" viewBox="0 0 1024 1024" xmlns="http://www.w3.org/2000/svg" width="200" height="200"><path d="M704 128a42.667 42.667 0 0 1 42.368 37.675l.299 4.992V728.96l55.168-55.125a42.667 42.667 0 0 1 63.872 56.32l-3.542 4.01-128 128a42.923 42.923 0 0 1-3.84 3.414l3.84-3.414a43.008 43.008 0 0 1-22.613 11.819l-1.195.213c-.853.128-1.792.256-2.688.299l-1.152.085-1.066.043-1.451.043-1.408-.086h-1.11c-.426 0-.767 0-1.151-.085l3.669.17a43.008 43.008 0 0 1-26.325-9.087 43.35 43.35 0 0 1-3.84-3.414l-128-128-3.542-4.01a42.667 42.667 0 0 1 63.872-56.32l55.168 55.125V170.667A42.667 42.667 0 0 1 704 128zM426.667 704l4.992.299a42.667 42.667 0 0 1-4.992 85.034H213.333l-4.992-.298A42.667 42.667 0 0 1 213.333 704h213.334zm128-256l4.992.299a42.667 42.667 0 0 1-4.992 85.034H213.333l-4.992-.298A42.667 42.667 0 0 1 213.333 448h341.334zm0-256l4.992.299a42.667 42.667 0 0 1-4.992 85.034H213.333l-4.992-.298A42.667 42.667 0 0 1 213.333 192h341.334z"/></svg>