<svg class="icon" viewBox="0 0 1024 1024" xmlns="http://www.w3.org/2000/svg" width="200" height="200"><path d="M880.2 634.1c-14.5-14.5-37.9-14.5-52.4 0s-14.5 37.9 0 52.4l85 85h-66.3c-78.3 0-151.6-34.9-201-95.6L512.6 512l133.1-163.8c49.4-60.8 122.6-95.6 201-95.6h66.1l-84.8 85c-14.5 14.5-14.5 37.9 0 52.4 7.2 7.2 16.7 10.8 26.2 10.8s19-3.6 26.2-10.9L1001.1 269l4.2-4.3c12.1-13.6 18.8-31 18.7-49.4 0-19.8-7.8-38.4-21.8-52.3l-122-122c-14.5-14.5-37.9-14.5-52.4 0s-14.5 37.9 0 52.4l85 85h-66.3c-100.7 0-195 44.8-258.5 123L464.8 453.2 341.6 301.5C278 223.3 183.7 178.4 82.9 178.4H37.1C16.6 178.4 0 195 0 215.5s16.6 37.1 37.1 37.1h45.8c78.4 0 151.7 34.9 201.2 95.8l133 163.7-133 163.7c-49.4 60.9-122.8 95.8-201.2 95.8H37.1C16.6 771.5 0 788.1 0 808.5c0 20.5 16.6 37.1 37.1 37.1h45.8c100.8 0 195.1-44.9 258.7-123.1l123.2-151.7 123.3 151.8c63.5 78.2 157.7 123 258.5 123h66.2l-84.9 85c-14.5 14.5-14.5 38 0 52.4 7.2 7.2 16.7 10.9 26.2 10.9s19-3.6 26.2-10.9l122.1-122.2c28.9-29 28.8-76-.1-104.8L880.2 634.1z" fill="#27D0D8"/></svg>